<svg xmlns="http://www.w3.org/2000/svg" viewBox="0 0 517.57 193.04"><defs><style>.cls-1{fill:#7d69e6;}.cls-2{fill:#03e3c9;}.cls-3{fill:#f2f2f2;}</style></defs><g id="Capa_2" data-name="Capa 2"><g id="geoPQ"><path class="cls-1" d="M491.21,31a7,7,0,1,1-6.93-7A7,7,0,0,1,491.21,31Z"/><path class="cls-1" d="M500.93,44.72a6.59,6.59,0,1,1-6.55-6.63A6.62,6.62,0,0,1,500.93,44.72Z"/><path class="cls-1" d="M506,60.24A6.22,6.22,0,1,1,499.8,54,6.32,6.32,0,0,1,506,60.24Z"/><path class="cls-1" d="M506.36,76.52a5.87,5.87,0,0,1-5.8,5.88,5.81,5.81,0,1,1,0-11.61A5.7,5.7,0,0,1,506.36,76.52Z"/><path class="cls-1" d="M502.06,92.42a5.47,5.47,0,0,1-5.42,5.5,5.43,5.43,0,1,1,0-10.85A5.28,5.28,0,0,1,502.06,92.42Z"/><path class="cls-1" d="M493.17,106.89a5.15,5.15,0,0,1-5.05,5.12,5,5,0,0,1-5.05-5.05,5.06,5.06,0,0,1,5.05-5,5,5,0,0,1,5.05,5Z"/><path class="cls-1" d="M480,118.49a4.68,4.68,0,1,1-4.68-4.67A4.55,4.55,0,0,1,480,118.49Z"/><path class="cls-1" d="M464.61,125.5a4.3,4.3,0,1,1-4.29-4.3A4.29,4.29,0,0,1,464.61,125.5Z"/><path class="cls-1" d="M448.11,127.84a3.92,3.92,0,1,1-3.92-3.92A3.84,3.84,0,0,1,448.11,127.84Z"/><path class="cls-1" d="M431.61,125.5a3.55,3.55,0,1,1-3.54-3.54A3.48,3.48,0,0,1,431.61,125.5Z"/><path class="cls-1" d="M416.24,118.49a3.17,3.17,0,1,1-3.17-3.16A3.09,3.09,0,0,1,416.24,118.49Z"/><path class="cls-1" d="M403.05,106.89a2.78,2.78,0,0,1-2.79,2.79,2.84,2.84,0,0,1-2.79-2.79,2.79,2.79,0,0,1,5.58,0Z"/><path class="cls-1" d="M394.16,92.42A2.42,2.42,0,1,1,391.75,90,2.42,2.42,0,0,1,394.16,92.42Z"/><path class="cls-1" d="M389.86,76.52a2,2,0,1,1-2-2A2,2,0,0,1,389.86,76.52Z"/><path class="cls-1" d="M390.24,60.24a1.66,1.66,0,1,1-1.66-1.65A1.67,1.67,0,0,1,390.24,60.24Z"/><path class="cls-1" d="M395.29,44.72A1.28,1.28,0,1,1,394,43.44,1.27,1.27,0,0,1,395.29,44.72Z"/><path class="cls-1" d="M405.08,31a.91.91,0,0,1-1.81,0,.88.88,0,0,1,.91-.91A.92.92,0,0,1,405.08,31Z"/><path class="cls-2" d="M423.7,96a4.3,4.3,0,1,1-4.3-4.29A4.25,4.25,0,0,1,423.7,96Z"/><path class="cls-2" d="M417.29,87.52a4.07,4.07,0,1,1-4.07-4.07A4.11,4.11,0,0,1,417.29,87.52Z"/><path class="cls-2" d="M413.75,78a3.85,3.85,0,1,1-3.84-3.85A3.85,3.85,0,0,1,413.75,78Z"/><path class="cls-2" d="M413,68.08a3.61,3.61,0,0,1-3.55,3.62A3.62,3.62,0,1,1,413,68.08Z"/><path class="cls-2" d="M415.18,58.28a3.3,3.3,0,0,1-3.31,3.32,3.32,3.32,0,1,1,3.31-3.32Z"/><path class="cls-2" d="M420.15,49.47a3.09,3.09,0,1,1-6.17,0,3.1,3.1,0,0,1,3.08-3.09A3,3,0,0,1,420.15,49.47Z"/><path class="cls-2" d="M427.76,42.38a2.86,2.86,0,1,1-2.86-2.86A2.77,2.77,0,0,1,427.76,42.38Z"/><path class="cls-2" d="M436.73,38.09a2.64,2.64,0,1,1-2.64-2.64A2.58,2.58,0,0,1,436.73,38.09Z"/><path class="cls-2" d="M446.38,36.66A2.39,2.39,0,0,1,444,39.07a2.43,2.43,0,0,1-2.42-2.41,2.42,2.42,0,0,1,4.83,0Z"/><path class="cls-2" d="M456,38.09a2.19,2.19,0,1,1-2.18-2.19A2.19,2.19,0,0,1,456,38.09Z"/><path class="cls-2" d="M465,42.38a2,2,0,1,1-2-2A1.94,1.94,0,0,1,465,42.38Z"/><path class="cls-2" d="M472.6,49.47a1.74,1.74,0,1,1-1.73-1.74A1.76,1.76,0,0,1,472.6,49.47Z"/><path class="cls-2" d="M477.57,58.28a1.51,1.51,0,1,1-1.5-1.5A1.54,1.54,0,0,1,477.57,58.28Z"/><path class="cls-2" d="M479.76,68.08a1.28,1.28,0,1,1-1.28-1.28A1.32,1.32,0,0,1,479.76,68.08Z"/><path class="cls-2" d="M479,78a1.07,1.07,0,0,1-1,1,1,1,0,0,1-1-1A1.07,1.07,0,0,1,478,77,1,1,0,0,1,479,78Z"/><path class="cls-2" d="M475.46,87.52a.75.75,0,1,1-.75-.75A.75.75,0,0,1,475.46,87.52Z"/><path class="cls-2" d="M469.06,96a.53.53,0,1,1-.53-.53C468.76,95.36,469.06,95.66,469.06,96Z"/><path class="cls-1" d="M101.67,166.21h12v3.15h-8.11v5h6.22v3.1h-6.22v8.23h-3.91Z"/><path class="cls-1" d="M126.74,185.68h-3.9V170.22h3.9v2.4a5.37,5.37,0,0,1,4.75-2.62v4.1h-1c-2.31,0-3.71.89-3.71,3.88Z"/><path class="cls-1" d="M147.35,185.93a8,8,0,1,1,8.06-8A7.73,7.73,0,0,1,147.35,185.93Zm0-3.41c2.07,0,4.05-1.5,4.05-4.57s-1.93-4.57-4-4.57-3.93,1.47-3.93,4.57S145.26,182.52,147.35,182.52Z"/><path class="cls-1" d="M175.49,177.14c0-2.48-1.36-3.82-3.43-3.82s-3.48,1.34-3.48,3.82v8.54h-3.91V170.22h3.91v1.93a5.75,5.75,0,0,1,4.65-2.15c3.6,0,6.17,2.34,6.17,6.61v9.07h-3.91Z"/><path class="cls-1" d="M190.1,173.43h-1.84v-3.21h1.84V166.4H194v3.82h3.45v3.21H194v7.48c0,1,.41,1.48,1.64,1.48h1.81v3.29H195c-3,0-4.94-1.26-4.94-4.8Z"/><path class="cls-1" d="M206.75,174.07h11.83v3.29H206.75Z"/><path class="cls-1" d="M236.09,185.93c-4.49,0-7.75-3.13-7.75-8s3.18-8,7.75-8a7.26,7.26,0,0,1,7.62,7.65,8.43,8.43,0,0,1-.12,1.5H232.3a3.61,3.61,0,0,0,3.71,3.57,3.17,3.17,0,0,0,3.09-1.87h4.22A7.19,7.19,0,0,1,236.09,185.93Zm-3.76-9.43h7.33a3.43,3.43,0,0,0-3.68-3.32A3.58,3.58,0,0,0,232.33,176.5Z"/><path class="cls-1" d="M263.76,177.14c0-2.48-1.37-3.82-3.43-3.82s-3.49,1.34-3.49,3.82v8.54h-3.91V170.22h3.91v1.93A5.77,5.77,0,0,1,261.5,170c3.6,0,6.16,2.34,6.16,6.61v9.07h-3.9Z"/><path class="cls-1" d="M283.83,170a6.34,6.34,0,0,1,5.05,2.4V165h4v20.64h-4v-2.29a5.84,5.84,0,0,1-5.07,2.54c-3.94,0-7.06-3.21-7.06-8S279.87,170,283.83,170Zm1,3.43c-2.09,0-4.07,1.57-4.07,4.5s2,4.6,4.07,4.6,4.1-1.62,4.1-4.55S287,173.4,284.81,173.4Z"/><path class="cls-1" d="M322.15,170a6.34,6.34,0,0,1,5.05,2.4V165h4v20.64h-4v-2.29a5.85,5.85,0,0,1-5.08,2.54c-3.93,0-7.05-3.21-7.05-8S318.19,170,322.15,170Zm1,3.43c-2.09,0-4.07,1.57-4.07,4.5s2,4.6,4.07,4.6,4.1-1.62,4.1-4.55S325.28,173.4,323.13,173.4Z"/><path class="cls-1" d="M348.12,185.93c-4.5,0-7.76-3.13-7.76-8s3.18-8,7.76-8a7.25,7.25,0,0,1,7.61,7.65,9.47,9.47,0,0,1-.11,1.5h-11.3a3.62,3.62,0,0,0,3.71,3.57,3.17,3.17,0,0,0,3.1-1.87h4.21A7.18,7.18,0,0,1,348.12,185.93Zm-3.77-9.43h7.34a3.44,3.44,0,0,0-3.69-3.32A3.59,3.59,0,0,0,344.35,176.5Z"/><path class="cls-1" d="M367.5,170.22l3.9,11.86,3.91-11.86h4.15l-5.72,15.46H369l-5.69-15.46Z"/><path class="cls-1" d="M394.8,185.93c-4.49,0-7.75-3.13-7.75-8s3.18-8,7.75-8a7.25,7.25,0,0,1,7.61,7.65,8.42,8.42,0,0,1-.11,1.5H391a3.61,3.61,0,0,0,3.71,3.57,3.17,3.17,0,0,0,3.09-1.87H402A7.17,7.17,0,0,1,394.8,185.93ZM391,176.5h7.34a3.43,3.43,0,0,0-3.68-3.32A3.6,3.6,0,0,0,391,176.5Z"/><path class="cls-1" d="M411.64,165h3.91v20.64h-3.91Z"/><path class="cls-1" d="M432.64,185.93a8,8,0,1,1,8.06-8A7.73,7.73,0,0,1,432.64,185.93Zm0-3.41c2.07,0,4.05-1.5,4.05-4.57s-1.93-4.57-4-4.57-3.93,1.47-3.93,4.57S430.55,182.52,432.64,182.52Z"/><path class="cls-1" d="M459,170c4,0,7.06,3.1,7.06,7.93s-3.1,8-7.06,8a6.31,6.31,0,0,1-5.11-2.46V193H450V170.22h3.9v2.24A6.19,6.19,0,0,1,459,170Zm-1,3.43c-2.1,0-4.08,1.62-4.08,4.55s2,4.55,4.08,4.55,4.1-1.68,4.1-4.6S460.06,173.4,457.94,173.4Z"/><path class="cls-1" d="M482,185.93c-4.49,0-7.75-3.13-7.75-8s3.18-8,7.75-8a7.26,7.26,0,0,1,7.62,7.65,9.47,9.47,0,0,1-.11,1.5h-11.3a3.62,3.62,0,0,0,3.71,3.57,3.18,3.18,0,0,0,3.1-1.87h4.21A7.18,7.18,0,0,1,482,185.93Zm-3.76-9.43h7.33a3.43,3.43,0,0,0-3.68-3.32A3.59,3.59,0,0,0,478.24,176.5Z"/><path class="cls-1" d="M502.75,185.68h-3.9V170.22h3.9v2.4a5.37,5.37,0,0,1,4.74-2.62v4.1h-1c-2.31,0-3.71.89-3.71,3.88Z"/><path class="cls-3" d="M24.3,175.23A39.8,39.8,0,0,1,8.83,162.71v-8.47q4.78,8.83,15,14.73a41.41,41.41,0,0,0,20.89,5.89q17.67,0,27.24-10.4T81.54,134V121.66A38.44,38.44,0,0,1,66,137.77a43.44,43.44,0,0,1-22.18,6.16A42.78,42.78,0,0,1,21.9,138a43.73,43.73,0,0,1-16-15.92,42.64,42.64,0,0,1,0-43.25A43.81,43.81,0,0,1,21.9,63a42.78,42.78,0,0,1,21.91-5.89,43.43,43.43,0,0,1,22.45,6.07A37.79,37.79,0,0,1,81.54,79.51V58.9h5.89V134q0,22.65-11,34.33T44.73,180A46.69,46.69,0,0,1,24.3,175.23ZM63,133.54a39,39,0,0,0,13.71-14,38.39,38.39,0,0,0,0-38.1A38.94,38.94,0,0,0,63,67.46a35.55,35.55,0,0,0-18.78-5.25,36.34,36.34,0,0,0-19,5.25,40,40,0,0,0-14,14,37.19,37.19,0,0,0,0,38.1,40.1,40.1,0,0,0,14,14,36.42,36.42,0,0,0,19.05,5.24A35.64,35.64,0,0,0,63,133.54Z"/><path class="cls-3" d="M169.15,133.81a42.25,42.25,0,0,0,14.36-13.62v9.39a42.18,42.18,0,0,1-14.91,10.95,47.14,47.14,0,0,1-18.41,3.4,40.68,40.68,0,0,1-21.44-6.07,45.92,45.92,0,0,1-16-16.2,41.59,41.59,0,0,1-6-21.53A42.43,42.43,0,0,1,112.64,78a41.35,41.35,0,0,1,16.11-15.37,47,47,0,0,1,22.73-5.52q19.14,0,32.58,15.09l-57.8,57.06A46.25,46.25,0,0,0,138,136.48a34.12,34.12,0,0,0,12.89,2.3A36.07,36.07,0,0,0,169.15,133.81Zm-46.38-8.1L176.7,72.15a42.25,42.25,0,0,0-11.78-7.64,36.49,36.49,0,0,0-13.62-2.3,40.27,40.27,0,0,0-20,4.88,35.89,35.89,0,0,0-13.72,13.34,37.17,37.17,0,0,0-5,19.15A37,37,0,0,0,122.77,125.71Z"/><path class="cls-3" d="M219.21,138.5a44,44,0,0,1-15.83-16.38,44.76,44.76,0,0,1-5.7-22.18,44.15,44.15,0,0,1,21.63-38A43.61,43.61,0,0,1,279.58,78a43.81,43.81,0,0,1,5.71,21.9,46.65,46.65,0,0,1-5.52,22.55,42,42,0,0,1-15.37,16.2,45.06,45.06,0,0,1-45.19-.19ZM261,134.18a37.69,37.69,0,0,0,13.53-14.27,41.28,41.28,0,0,0-.09-39.11,38.24,38.24,0,0,0-13.62-14.35,36.89,36.89,0,0,0-38.38.09,39.88,39.88,0,0,0-18.86,34,39.28,39.28,0,0,0,18.86,33.68,36.53,36.53,0,0,0,19.42,5.34A35.69,35.69,0,0,0,261,134.18Z"/><path class="cls-3" d="M306.45,3.68h6.08q21.72,0,33.87,11.5T358.54,46a47.49,47.49,0,0,1-5.89,23.84,40.94,40.94,0,0,1-16,16A45.83,45.83,0,0,1,314,91.48h-1.47v50.25h-6.08Zm7.92,82.46q16.74,0,27.42-10.4t10.68-29.36q0-18-10-27.7T314,9h-1.47V86.14Z"/><path class="cls-3" d="M510.21,104.55A73.29,73.29,0,0,1,490,130l14.17,14H496l-10.68-10.67a68.8,68.8,0,0,1-39.57,12.15,67.55,67.55,0,0,1-35.89-10.13,74.49,74.49,0,0,1-26.23-27A71.51,71.51,0,0,1,374,72.15a69.61,69.61,0,0,1,9.76-35.8,73.63,73.63,0,0,1,26.32-26.5,70.62,70.62,0,0,1,71.78-.1,72.68,72.68,0,0,1,26.05,26.42,70.49,70.49,0,0,1,9.66,36A73,73,0,0,1,510.21,104.55Zm-28.9,24.66L448.73,97h7.92l29.26,28.9a69.72,69.72,0,0,0,18.68-23.56A67.85,67.85,0,0,0,502.66,39a67.06,67.06,0,0,0-23.93-24.57,63.8,63.8,0,0,0-65.71,0A67.78,67.78,0,0,0,389,39a65.88,65.88,0,0,0-8.92,33.5A66.65,66.65,0,0,0,389,106.29,67.67,67.67,0,0,0,413,131a62.31,62.31,0,0,0,32.77,9.11A63,63,0,0,0,481.31,129.21Z"/></g></g></svg>